0
SECTION
2
HEADER
9
$INSUNITS
70
4
0
ENDSEC
0
SECTION
2
TABLES
0
TABLE
2
LTYPE
0
LTYPE
72
65
70
64
2
CONTINUOUS
3
______
73
0
40
0
0
ENDTAB
0
TABLE
2
LAYER
0
ENDTAB
0
ENDSEC
0
SECTION
2
ENTITIES
0
LINE
8
0
10
26.5773184
20
-110.3185144
11
41.0662055
21
-114.2008001
0
LINE
8
0
10
25.1631047
20
-107.8690247
11
39.3463885
21
-54.9362895
0
LINE
8
0
10
56.2847656
20
-57.4043615
11
41.7958782
21
-53.5220758
0
LINE
8
0
10
42.4775986
20
-124.3882235
11
58.7051524
21
-128.7363835
0
LINE
8
0
10
61.1546421
20
-127.3221698
11
62.5846173
21
-121.9854298
0
LINE
8
0
10
42.4804192
20
-116.6502898
11
41.0633849
21
-121.9387338
0
LINE
8
0
10
77.1026077
20
-53.1214799
11
62.6137203
21
-49.2391942
0
LINE
8
0
10
60.1642306
20
-50.6534079
11
58.7342554
21
-55.9901478
0
LINE
8
0
10
65.0341071
20
-120.5712161
11
79.5229945
21
-124.4535018
0
LINE
8
0
10
81.9724842
20
-123.0392881
11
83.4024594
21
-117.7025482
0
LINE
8
0
10
97.9204498
20
-48.8385982
11
83.4315624
21
-44.9563125
0
LINE
8
0
10
80.9820727
20
-46.3705262
11
79.5520975
21
-51.7072662
0
LINE
8
0
10
85.8519492
20
-116.2883345
11
98.6021699
21
-119.7047459
0
LINE
8
0
10
120.4611968
20
-52.8078208
11
121.891172
21
-47.4710806
0
LINE
8
0
10
120.4769583
20
-45.0215909
11
104.2494045
21
-40.6734309
0
LINE
8
0
10
101.7999148
20
-42.0876446
11
100.3699396
21
-47.4243845
0
LINE
8
0
10
100.0006221
20
-129.9404655
11
114.4895093
21
-133.8227512
0
LINE
8
0
10
100.0163836
20
-122.1542356
11
98.5864084
21
-127.4909758
0
LINE
8
0
10
136.3485361
20
-66.9258262
11
137.7785113
21
-61.5890859
0
LINE
8
0
10
136.3642976
20
-59.1395962
11
121.8754105
21
-55.2573105
0
LINE
8
0
10
115.8879614
20
-144.0584709
11
132.1155152
21
-148.4066309
0
LINE
8
0
10
134.5650049
20
-146.9924172
11
135.9820392
21
-141.7039735
0
LINE
8
0
10
115.9037229
20
-136.2722409
11
114.4737477
21
-141.6089812
0
LINE
8
0
10
152.2358754
20
-81.0438315
11
153.6658506
21
-75.7070913
0
LINE
8
0
10
152.2516369
20
-73.2576016
11
137.7627498
21
-69.3753159
0
LINE
8
0
10
138.4315289
20
-140.2897598
11
152.9204164
21
-144.1720455
0
LINE
8
0
10
155.3699061
20
-142.7578318
11
155.5213152
21
-142.1927654
0
LINE
8
0
10
167.4036977
20
-97.8471106
11
169.5531899
21
-89.8250966
0
LINE
8
0
10
168.1389762
20
-87.3756069
11
153.6500891
21
-83.4933212
0
LINE
8
0
10
142.8445156
20
-171.561704
11
160.7445156
21
-202.5654135
0
LINE
8
0
10
143.5765664
20
-168.8296532
11
174.5802759
21
-150.9296532
0
LINE
8
0
10
177.3123267
20
-151.661704
11
195.2123267
21
-182.6654135
0
LINE
8
0
10
163.4765664
20
-203.2974643
11
194.4802759
21
-185.3974643
0
LINE
8
0
10
361.0451195
20
-114.2008001
11
375.5340066
21
-110.3185144
0
LINE
8
0
10
362.7649365
20
-54.9362895
11
376.9482203
21
-107.8690247
0
LINE
8
0
10
360.3154468
20
-53.5220758
11
345.8265594
21
-57.4043615
0
LINE
8
0
10
343.4061726
20
-128.7363835
11
359.6337264
21
-124.3882235
0
LINE
8
0
10
361.0479401
20
-121.9387338
11
359.6309058
21
-116.6502898
0
LINE
8
0
10
339.5267077
20
-121.9854298
11
340.9566829
21
-127.3221698
0
LINE
8
0
10
343.3770696
20
-55.9901478
11
341.9470944
21
-50.6534079
0
LINE
8
0
10
339.4976047
20
-49.2391942
11
325.0087173
21
-53.1214799
0
LINE
8
0
10
322.5883305
20
-124.4535018
11
337.0772179
21
-120.5712161
0
LINE
8
0
10
318.7088656
20
-117.7025482
11
320.1388408
21
-123.0392881
0
LINE
8
0
10
322.5592275
20
-51.7072662
11
321.1292523
21
-46.3705262
0
LINE
8
0
10
318.6797626
20
-44.9563125
11
304.1908752
21
-48.8385982
0
LINE
8
0
10
303.5091551
20
-119.7047459
11
316.2593758
21
-116.2883345
0
LINE
8
0
10
301.7413854
20
-47.4243845
11
300.3114102
21
-42.0876446
0
LINE
8
0
10
297.8619205
20
-40.6734309
11
281.6343667
21
-45.0215909
0
LINE
8
0
10
280.220153
20
-47.4710806
11
281.6501282
21
-52.8078208
0
LINE
8
0
10
287.6218157
20
-133.8227512
11
302.1107029
21
-129.9404655
0
LINE
8
0
10
303.5249166
20
-127.4909758
11
302.0949414
21
-122.1542356
0
LINE
8
0
10
280.2359145
20
-55.2573105
11
265.7470274
21
-59.1395962
0
LINE
8
0
10
264.3328137
20
-61.5890859
11
265.7627889
21
-66.9258262
0
LINE
8
0
10
269.9958098
20
-148.4066309
11
286.2233636
21
-144.0584709
0
LINE
8
0
10
287.6375773
20
-141.6089812
11
286.2076021
21
-136.2722409
0
LINE
8
0
10
266.1292858
20
-141.7039735
11
267.5463201
21
-146.9924172
0
LINE
8
0
10
264.3485752
20
-69.3753159
11
249.8596881
21
-73.2576016
0
LINE
8
0
10
248.4454744
20
-75.7070913
11
249.8754496
21
-81.0438315
0
LINE
8
0
10
249.1909086
20
-144.1720455
11
263.6797961
21
-140.2897598
0
LINE
8
0
10
232.5581351
20
-89.8250966
11
246.7414189
21
-142.7578318
0
LINE
8
0
10
248.4612359
20
-83.4933212
11
233.9723488
21
-87.3756069
0
LINE
8
0
10
241.3668094
20
-202.5654135
11
259.2668094
21
-171.561704
0
LINE
8
0
10
227.5310491
20
-150.9296532
11
258.5347586
21
-168.8296532
0
LINE
8
0
10
206.8989983
20
-182.6654135
11
224.7989983
21
-151.661704
0
LINE
8
0
10
207.6310491
20
-185.3974643
11
238.6347586
21
-203.2974643
0
ARC
8
0
10
375.0163686
20
-108.3866627
40
2
50
284.9999979
51
14.9999979
0
ARC
8
0
10
360.8330848
20
-55.4539275
40
2
50
14.9999979
51
104.9999979
0
ARC
8
0
10
345.3089213
20
-55.4725098
40
2
50
194.9999979
51
284.9999979
0
ARC
8
0
10
340.0152427
20
-51.1710459
40
2
50
14.9999979
51
104.9999979
0
ARC
8
0
10
324.4910792
20
-51.1896282
40
2
50
194.9999979
51
284.9999979
0
ARC
8
0
10
319.1974006
20
-46.8881642
40
2
50
14.9999979
51
104.9999979
0
ARC
8
0
10
303.6732371
20
-46.9067465
40
2
50
194.9999979
51
284.9999979
0
ARC
8
0
10
298.3795585
20
-42.6052826
40
2
50
14.9999979
51
104.9999979
0
ARC
8
0
10
282.1520047
20
-46.9534426
40
2
50
104.9999979
51
194.9999979
0
ARC
8
0
10
279.7182765
20
-53.3254588
40
2
50
284.9999979
51
14.9999979
0
ARC
8
0
10
266.2646654
20
-61.0714479
40
2
50
104.9999979
51
194.9999979
0
ARC
8
0
10
263.8309372
20
-67.4434642
40
2
50
284.9999979
51
14.9999979
0
ARC
8
0
10
250.3773261
20
-75.1894533
40
2
50
104.9999979
51
194.9999979
0
ARC
8
0
10
247.9435979
20
-81.5614695
40
2
50
284.9999979
51
14.9999979
0
ARC
8
0
10
234.4899868
20
-89.3074586
40
2
50
104.9999979
51
194.9999979
0
ARC
8
0
10
248.6732706
20
-142.2401938
40
2
50
194.9999979
51
284.9999979
0
ARC
8
0
10
264.1974341
20
-142.2216115
40
2
50
14.9999979
51
104.9999979
0
ARC
8
0
10
269.4781718
20
-146.4747792
40
2
50
194.9999979
51
284.9999979
0
ARC
8
0
10
285.7057256
20
-142.1266192
40
2
50
284.9999979
51
14.9999979
0
ARC
8
0
10
288.1394538
20
-135.7546029
40
2
50
104.9999979
51
194.9999979
0
ARC
8
0
10
301.5930649
20
-128.0086138
40
2
50
284.9999979
51
14.9999979
0
ARC
8
0
10
304.0267931
20
-121.6365976
40
2
50
104.9999979
51
194.9999979
0
ARC
8
0
10
316.7770139
20
-118.2201862
40
2
50
14.9999979
51
104.9999979
0
ARC
8
0
10
322.0706925
20
-122.5216501
40
2
50
194.9999979
51
284.9999979
0
ARC
8
0
10
337.594856
20
-122.5030678
40
2
50
14.9999979
51
104.9999979
0
ARC
8
0
10
342.8885346
20
-126.8045318
40
2
50
194.9999979
51
284.9999979
0
ARC
8
0
10
359.1160884
20
-122.4563718
40
2
50
284.9999979
51
14.9999979
0
ARC
8
0
10
361.5627575
20
-116.1326518
40
2
50
104.9999979
51
194.9999979
0
ARC
8
0
10
40.5485675
20
-116.1326518
40
2
50
345.0000021
51
75.0000021
0
ARC
8
0
10
42.9952366
20
-122.4563718
40
2
50
165.0000021
51
255.0000021
0
ARC
8
0
10
59.2227904
20
-126.8045318
40
2
50
255.0000021
51
345.0000021
0
ARC
8
0
10
64.516469
20
-122.5030678
40
2
50
75.0000021
51
165.0000021
0
ARC
8
0
10
80.0406325
20
-122.5216501
40
2
50
255.0000021
51
345.0000021
0
ARC
8
0
10
85.3343111
20
-118.2201862
40
2
50
75.0000021
51
165.0000021
0
ARC
8
0
10
98.0845319
20
-121.6365976
40
2
50
345.0000021
51
75.0000021
0
ARC
8
0
10
100.5182601
20
-128.0086138
40
2
50
165.0000021
51
255.0000021
0
ARC
8
0
10
113.9718712
20
-135.7546029
40
2
50
345.0000021
51
75.0000021
0
ARC
8
0
10
116.4055994
20
-142.1266192
40
2
50
165.0000021
51
255.0000021
0
ARC
8
0
10
132.6331532
20
-146.4747792
40
2
50
255.0000021
51
345.0000021
0
ARC
8
0
10
137.9138909
20
-142.2216115
40
2
50
75.0000021
51
165.0000021
0
ARC
8
0
10
153.4380544
20
-142.2401938
40
2
50
255.0000021
51
345.0000021
0
ARC
8
0
10
167.6213382
20
-89.3074586
40
2
50
345.0000021
51
75.0000021
0
ARC
8
0
10
154.1677271
20
-81.5614695
40
2
50
165.0000021
51
255.0000021
0
ARC
8
0
10
151.7339989
20
-75.1894533
40
2
50
345.0000021
51
75.0000021
0
ARC
8
0
10
138.2803878
20
-67.4434642
40
2
50
165.0000021
51
255.0000021
0
ARC
8
0
10
135.8466596
20
-61.0714479
40
2
50
345.0000021
51
75.0000021
0
ARC
8
0
10
122.3930485
20
-53.3254588
40
2
50
165.0000021
51
255.0000021
0
ARC
8
0
10
119.9593203
20
-46.9534426
40
2
50
345.0000021
51
75.0000021
0
ARC
8
0
10
103.7317665
20
-42.6052826
40
2
50
75.0000021
51
165.0000021
0
ARC
8
0
10
98.4380879
20
-46.9067465
40
2
50
255.0000021
51
345.0000021
0
ARC
8
0
10
82.9139244
20
-46.8881642
40
2
50
75.0000021
51
165.0000021
0
ARC
8
0
10
77.6202458
20
-51.1896282
40
2
50
255.0000021
51
345.0000021
0
ARC
8
0
10
62.0960823
20
-51.1710459
40
2
50
75.0000021
51
165.0000021
0
ARC
8
0
10
56.8024037
20
-55.4725098
40
2
50
255.0000021
51
345.0000021
0
ARC
8
0
10
41.2782402
20
-55.4539275
40
2
50
75.0000021
51
165.0000021
0
ARC
8
0
10
27.0949564
20
-108.3866627
40
2
50
165.0000021
51
255.0000021
0
ARC
8
0
10
162.4765664
20
-201.5654135
40
2
50
210.0000001
51
300.0000001
0
ARC
8
0
10
193.4802759
20
-183.6654135
40
2
50
300.0000001
51
30.0000001
0
ARC
8
0
10
175.5802759
20
-152.661704
40
2
50
30.0000001
51
120.0000001
0
ARC
8
0
10
144.5765664
20
-170.561704
40
2
50
120.0000001
51
210.0000001
0
ARC
8
0
10
257.5347586
20
-170.561704
40
2
50
329.9999999
51
59.9999999
0
ARC
8
0
10
226.5310491
20
-152.661704
40
2
50
59.9999999
51
149.9999999
0
ARC
8
0
10
208.6310491
20
-183.6654135
40
2
50
149.9999999
51
239.9999999
0
ARC
8
0
10
239.6347586
20
-201.5654135
40
2
50
239.9999999
51
329.9999999
0
LINE
8
0
10
168.8179114
20
-100.2966004
11
182.5099097
21
-103.9653603
0
LINE
8
0
10
183.9241234
20
-106.41485
11
174.1122934
21
-143.033098
0
LINE
8
0
10
171.6628037
20
-144.4473117
11
157.970805
21
-140.7785517
0
ARC
8
0
10
157.4531669
20
-142.7104034
40
2
50
75.0000021
51
165.0000021
0
ARC
8
0
10
172.1804417
20
-142.51546
40
2
50
255.0000021
51
345.0000021
0
ARC
8
0
10
181.9922717
20
-105.897212
40
2
50
345.0000021
51
75.0000021
0
ARC
8
0
10
169.3355494
20
-98.3647487
40
2
50
165.0000021
51
255.0000021
0
ENDSEC
0
EOF