0
SECTION
2
HEADER
9
$INSUNITS
70
4
0
ENDSEC
0
SECTION
2
TABLES
0
TABLE
2
LTYPE
0
LTYPE
72
65
70
64
2
CONTINUOUS
3
______
73
0
40
0
0
ENDTAB
0
TABLE
2
LAYER
0
ENDTAB
0
ENDSEC
0
SECTION
2
ENTITIES
0
LINE
8
0
10
26.5773184
20
-110.3185144
11
41.0662055
21
-114.2008001
0
LINE
8
0
10
25.1631047
20
-107.8690247
11
39.3463885
21
-54.9362895
0
LINE
8
0
10
56.2847656
20
-57.4043615
11
41.7958782
21
-53.5220758
0
LINE
8
0
10
42.4775986
20
-124.3882235
11
58.7051524
21
-128.7363835
0
LINE
8
0
10
61.1546421
20
-127.3221698
11
62.5846173
21
-121.9854298
0
LINE
8
0
10
42.4804192
20
-116.6502898
11
41.0633849
21
-121.9387338
0
LINE
8
0
10
77.1026077
20
-53.1214799
11
62.6137203
21
-49.2391942
0
LINE
8
0
10
60.1642306
20
-50.6534079
11
58.7342554
21
-55.9901478
0
LINE
8
0
10
65.0341071
20
-120.5712161
11
79.5229945
21
-124.4535018
0
LINE
8
0
10
81.9724842
20
-123.0392881
11
83.4024594
21
-117.7025482
0
LINE
8
0
10
97.9204498
20
-48.8385982
11
83.4315624
21
-44.9563125
0
LINE
8
0
10
80.9820727
20
-46.3705262
11
79.5520975
21
-51.7072662
0
LINE
8
0
10
85.8519492
20
-116.2883345
11
98.6021699
21
-119.7047459
0
LINE
8
0
10
120.4611968
20
-52.8078208
11
121.891172
21
-47.4710806
0
LINE
8
0
10
120.4769583
20
-45.0215909
11
104.2494045
21
-40.6734309
0
LINE
8
0
10
101.7999148
20
-42.0876446
11
100.3699396
21
-47.4243845
0
LINE
8
0
10
100.0006221
20
-129.9404655
11
114.4895093
21
-133.8227512
0
LINE
8
0
10
100.0163836
20
-122.1542356
11
98.5864084
21
-127.4909758
0
LINE
8
0
10
136.3485361
20
-66.9258262
11
137.7785113
21
-61.5890859
0
LINE
8
0
10
136.3642976
20
-59.1395962
11
121.8754105
21
-55.2573105
0
LINE
8
0
10
115.8879614
20
-144.0584709
11
132.1155152
21
-148.4066309
0
LINE
8
0
10
134.5650049
20
-146.9924172
11
135.9820392
21
-141.7039735
0
LINE
8
0
10
115.9037229
20
-136.2722409
11
114.4737477
21
-141.6089812
0
LINE
8
0
10
152.2358754
20
-81.0438315
11
153.6658506
21
-75.7070913
0
LINE
8
0
10
152.2516369
20
-73.2576016
11
137.7627498
21
-69.3753159
0
LINE
8
0
10
138.4315289
20
-140.2897598
11
152.9204164
21
-144.1720455
0
LINE
8
0
10
155.3699061
20
-142.7578318
11
155.5213152
21
-142.1927654
0
LINE
8
0
10
167.4036977
20
-97.8471106
11
169.5531899
21
-89.8250966
0
LINE
8
0
10
168.1389762
20
-87.3756069
11
153.6500891
21
-83.4933212
0
LINE
8
0
10
142.8445156
20
-171.561704
11
160.7445156
21
-202.5654135
0
LINE
8
0
10
143.5765664
20
-168.8296532
11
174.5802759
21
-150.9296532
0
LINE
8
0
10
177.3123267
20
-151.661704
11
195.2123267
21
-182.6654135
0
LINE
8
0
10
163.4765664
20
-203.2974643
11
194.4802759
21
-185.3974643
0
LINE
8
0
10
361.0451195
20
-114.2008001
11
375.5340066
21
-110.3185144
0
LINE
8
0
10
362.7649365
20
-54.9362895
11
376.9482203
21
-107.8690247
0
LINE
8
0
10
360.3154468
20
-53.5220758
11
345.8265594
21
-57.4043615
0
LINE
8
0
10
343.4061726
20
-128.7363835
11
359.6337264
21
-124.3882235
0
LINE
8
0
10
361.0479401
20
-121.9387338
11
359.6309058
21
-116.6502898
0
LINE
8
0
10
339.5267077
20
-121.9854298
11
340.9566829
21
-127.3221698
0
LINE
8
0
10
343.3770696
20
-55.9901478
11
341.9470944
21
-50.6534079
0
LINE
8
0
10
339.4976047
20
-49.2391942
11
325.0087173
21
-53.1214799
0
LINE
8
0
10
322.5883305
20
-124.4535018
11
337.0772179
21
-120.5712161
0
LINE
8
0
10
318.7088656
20
-117.7025482
11
320.1388408
21
-123.0392881
0
LINE
8
0
10
322.5592275
20
-51.7072662
11
321.1292523
21
-46.3705262
0
LINE
8
0
10
318.6797626
20
-44.9563125
11
304.1908752
21
-48.8385982
0
LINE
8
0
10
303.5091551
20
-119.7047459
11
316.2593758
21
-116.2883345
0
LINE
8
0
10
301.7413854
20
-47.4243845
11
300.3114102
21
-42.0876446
0
LINE
8
0
10
297.8619205
20
-40.6734309
11
281.6343667
21
-45.0215909
0
LINE
8
0
10
280.220153
20
-47.4710806
11
281.6501282
21
-52.8078208
0
LINE
8
0
10
287.6218157
20
-133.8227512
11
302.1107029
21
-129.9404655
0
LINE
8
0
10
303.5249166
20
-127.4909758
11
302.0949414
21
-122.1542356
0
LINE
8
0
10
280.2359145
20
-55.2573105
11
265.7470274
21
-59.1395962
0
LINE
8
0
10
264.3328137
20
-61.5890859
11
265.7627889
21
-66.9258262
0
LINE
8
0
10
269.9958098
20
-148.4066309
11
286.2233636
21
-144.0584709
0
LINE
8
0
10
287.6375773
20
-141.6089812
11
286.2076021
21
-136.2722409
0
LINE
8
0
10
266.1292858
20
-141.7039735
11
267.5463201
21
-146.9924172
0
LINE
8
0
10
264.3485752
20
-69.3753159
11
249.8596881
21
-73.2576016
0
LINE
8
0
10
248.4454744
20
-75.7070913
11
249.8754496
21
-81.0438315
0
LINE
8
0
10
249.1909086
20
-144.1720455
11
263.6797961
21
-140.2897598
0
LINE
8
0
10
232.5581351
20
-89.8250966
11
246.7414189
21
-142.7578318
0
LINE
8
0
10
248.4612359
20
-83.4933212
11
233.9723488
21
-87.3756069
0
LINE
8
0
10
241.3668094
20
-202.5654135
11
259.2668094
21
-171.561704
0
LINE
8
0
10
227.5310491
20
-150.9296532
11
258.5347586
21
-168.8296532
0
LINE
8
0
10
206.8989983
20
-182.6654135
11
224.7989983
21
-151.661704
0
LINE
8
0
10
207.6310491
20
-185.3974643
11
238.6347586
21
-203.2974643
0
ARC
8
0
10
375.0163686
20
-108.3866627
40
2
50
284.9999979
51
14.9999979
0
ARC
8
0
10
360.8330848
20
-55.4539275
40
2
50
14.9999979
51
104.9999979
0
ARC
8
0
10
345.3089213
20
-55.4725098
40
2
50
194.9999979
51
284.9999979
0
ARC
8
0
10
340.0152427
20
-51.1710459
40
2
50
14.9999979
51
104.9999979
0
ARC
8
0
10
324.4910792
20
-51.1896282
40
2
50
194.9999979
51
284.9999979
0
ARC
8
0
10
319.1974006
20
-46.8881642
40
2
50
14.9999979
51
104.9999979
0
ARC
8
0
10
303.6732371
20
-46.9067465
40
2
50
194.9999979
51
284.9999979
0
ARC
8
0
10
298.3795585
20
-42.6052826
40
2
50
14.9999979
51
104.9999979
0
ARC
8
0
10
282.1520047
20
-46.9534426
40
2
50
104.9999979
51
194.9999979
0
ARC
8
0
10
279.7182765
20
-53.3254588
40
2
50
284.9999979
51
14.9999979
0
ARC
8
0
10
266.2646654
20
-61.0714479
40
2
50
104.9999979
51
194.9999979
0
ARC
8
0
10
263.8309372
20
-67.4434642
40
2
50
284.9999979
51
14.9999979
0
ARC
8
0
10
250.3773261
20
-75.1894533
40
2
50
104.9999979
51
194.9999979
0
ARC
8
0
10
247.9435979
20
-81.5614695
40
2
50
284.9999979
51
14.9999979
0
ARC
8
0
10
234.4899868
20
-89.3074586
40
2
50
104.9999979
51
194.9999979
0
ARC
8
0
10
248.6732706
20
-142.2401938
40
2
50
194.9999979
51
284.9999979
0
ARC
8
0
10
264.1974341
20
-142.2216115
40
2
50
14.9999979
51
104.9999979
0
ARC
8
0
10
269.4781718
20
-146.4747792
40
2
50
194.9999979
51
284.9999979
0
ARC
8
0
10
285.7057256
20
-142.1266192
40
2
50
284.9999979
51
14.9999979
0
ARC
8
0
10
288.1394538
20
-135.7546029
40
2
50
104.9999979
51
194.9999979
0
ARC
8
0
10
301.5930649
20
-128.0086138
40
2
50
284.9999979
51
14.9999979
0
ARC
8
0
10
304.0267931
20
-121.6365976
40
2
50
104.9999979
51
194.9999979
0
ARC
8
0
10
316.7770139
20
-118.2201862
40
2
50
14.9999979
51
104.9999979
0
ARC
8
0
10
322.0706925
20
-122.5216501
40
2
50
194.9999979
51
284.9999979
0
ARC
8
0
10
337.594856
20
-122.5030678
40
2
50
14.9999979
51
104.9999979
0
ARC
8
0
10
342.8885346
20
-126.8045318
40
2
50
194.9999979
51
284.9999979
0
ARC
8
0
10
359.1160884
20
-122.4563718
40
2
50
284.9999979
51
14.9999979
0
ARC
8
0
10
361.5627575
20
-116.1326518
40
2
50
104.9999979
51
194.9999979
0
ARC
8
0
10
40.5485675
20
-116.1326518
40
2
50
345.0000021
51
75.0000021
0
ARC
8
0
10
42.9952366
20
-122.4563718
40
2
50
165.0000021
51
255.0000021
0
ARC
8
0
10
59.2227904
20
-126.8045318
40
2
50
255.0000021
51
345.0000021
0
ARC
8
0
10
64.516469
20
-122.5030678
40
2
50
75.0000021
51
165.0000021
0
ARC
8
0
10
80.0406325
20
-122.5216501
40
2
50
255.0000021
51
345.0000021
0
ARC
8
0
10
85.3343111
20
-118.2201862
40
2
50
75.0000021
51
165.0000021
0
ARC
8
0
10
98.0845319
20
-121.6365976
40
2
50
345.0000021
51
75.0000021
0
ARC
8
0
10
100.5182601
20
-128.0086138
40
2
50
165.0000021
51
255.0000021
0
ARC
8
0
10
113.9718712
20
-135.7546029
40
2
50
345.0000021
51
75.0000021
0
ARC
8
0
10
116.4055994
20
-142.1266192
40
2
50
165.0000021
51
255.0000021
0
ARC
8
0
10
132.6331532
20
-146.4747792
40
2
50
255.0000021
51
345.0000021
0
ARC
8
0
10
137.9138909
20
-142.2216115
40
2
50
75.0000021
51
165.0000021
0
ARC
8
0
10
153.4380544
20
-142.2401938
40
2
50
255.0000021
51
345.0000021
0
ARC
8
0
10
167.6213382
20
-89.3074586
40
2
50
345.0000021
51
75.0000021
0
ARC
8
0
10
154.1677271
20
-81.5614695
40
2
50
165.0000021
51
255.0000021
0
ARC
8
0
10
151.7339989
20
-75.1894533
40
2
50
345.0000021
51
75.0000021
0
ARC
8
0
10
138.2803878
20
-67.4434642
40
2
50
165.0000021
51
255.0000021
0
ARC
8
0
10
135.8466596
20
-61.0714479
40
2
50
345.0000021
51
75.0000021
0
ARC
8
0
10
122.3930485
20
-53.3254588
40
2
50
165.0000021
51
255.0000021
0
ARC
8
0
10
119.9593203
20
-46.9534426
40
2
50
345.0000021
51
75.0000021
0
ARC
8
0
10
103.7317665
20
-42.6052826
40
2
50
75.0000021
51
165.0000021
0
ARC
8
0
10
98.4380879
20
-46.9067465
40
2
50
255.0000021
51
345.0000021
0
ARC
8
0
10
82.9139244
20
-46.8881642
40
2
50
75.0000021
51
165.0000021
0
ARC
8
0
10
77.6202458
20
-51.1896282
40
2
50
255.0000021
51
345.0000021
0
ARC
8
0
10
62.0960823
20
-51.1710459
40
2
50
75.0000021
51
165.0000021
0
ARC
8
0
10
56.8024037
20
-55.4725098
40
2
50
255.0000021
51
345.0000021
0
ARC
8
0
10
41.2782402
20
-55.4539275
40
2
50
75.0000021
51
165.0000021
0
ARC
8
0
10
27.0949564
20
-108.3866627
40
2
50
165.0000021
51
255.0000021
0
ARC
8
0
10
162.4765664
20
-201.5654135
40
2
50
210.0000001
51
300.0000001
0
ARC
8
0
10
193.4802759
20
-183.6654135
40
2
50
300.0000001
51
30.0000001
0
ARC
8
0
10
175.5802759
20
-152.661704
40
2
50
30.0000001
51
120.0000001
0
ARC
8
0
10
144.5765664
20
-170.561704
40
2
50
120.0000001
51
210.0000001
0
ARC
8
0
10
257.5347586
20
-170.561704
40
2
50
329.9999999
51
59.9999999
0
ARC
8
0
10
226.5310491
20
-152.661704
40
2
50
59.9999999
51
149.9999999
0
ARC
8
0
10
208.6310491
20
-183.6654135
40
2
50
149.9999999
51
239.9999999
0
ARC
8
0
10
239.6347586
20
-201.5654135
40
2
50
239.9999999
51
329.9999999
0
LINE
8
0
10
168.8179114
20
-100.2966004
11
182.5099097
21
-103.9653603
0
LINE
8
0
10
183.9241234
20
-106.41485
11
174.1122934
21
-143.033098
0
LINE
8
0
10
171.6628037
20
-144.4473117
11
157.970805
21
-140.7785517
0
ARC
8
0
10
157.4531669
20
-142.7104034
40
2
50
75.0000021
51
165.0000021
0
ARC
8
0
10
172.1804417
20
-142.51546
40
2
50
255.0000021
51
345.0000021
0
ARC
8
0
10
181.9922717
20
-105.897212
40
2
50
345.0000021
51
75.0000021
0
ARC
8
0
10
169.3355494
20
-98.3647487
40
2
50
165.0000021
51
255.0000021
0
LINE
8
0
10
26.0233046
20
-109.0053812
11
43.9412287
21
-113.8064745
0
LINE
8
0
10
43.9412287
20
-113.8064745
11
48.742322
21
-95.8885504
0
LINE
8
0
10
48.742322
20
-95.8885504
11
30.8243979
21
-91.0874571
0
LINE
8
0
10
30.8243979
20
-91.0874571
11
26.0233046
21
-109.0053812
0
LINE
8
0
10
30.9408665
20
-90.6527905
11
48.8587906
21
-95.4538838
0
LINE
8
0
10
48.8587906
20
-95.4538838
11
53.6598839
21
-77.5359597
0
LINE
8
0
10
53.6598839
20
-77.5359597
11
35.7419598
21
-72.7348664
0
LINE
8
0
10
35.7419598
20
-72.7348664
11
30.9408665
21
-90.6527905
0
LINE
8
0
10
35.8584284
20
-72.3001998
11
53.7763525
21
-77.1012931
0
LINE
8
0
10
53.7763525
20
-77.1012931
11
58.5774458
21
-59.183369
0
LINE
8
0
10
58.5774458
20
-59.183369
11
40.6595217
21
-54.3822757
0
LINE
8
0
10
40.6595217
20
-54.3822757
11
35.8584284
21
-72.3001998
0
LINE
8
0
10
41.9235848
20
-123.0750903
11
59.8415089
21
-127.8761836
0
LINE
8
0
10
59.8415089
20
-127.8761836
11
64.6426022
21
-109.9582595
0
LINE
8
0
10
64.6426022
20
-109.9582595
11
46.7246781
21
-105.1571662
0
LINE
8
0
10
46.7246781
20
-105.1571662
11
41.9235848
21
-123.0750903
0
LINE
8
0
10
46.8411467
20
-104.7224996
11
64.7590708
21
-109.5235929
0
LINE
8
0
10
64.7590708
20
-109.5235929
11
69.5601641
21
-91.6056688
0
LINE
8
0
10
69.5601641
20
-91.6056688
11
51.64224
21
-86.8045755
0
LINE
8
0
10
51.64224
20
-86.8045755
11
46.8411467
21
-104.7224996
0
LINE
8
0
10
51.7587086
20
-86.3699089
11
69.6766327
21
-91.1710022
0
LINE
8
0
10
69.6766327
20
-91.1710022
11
74.477726
21
-73.2530781
0
LINE
8
0
10
74.477726
20
-73.2530781
11
56.5598019
21
-68.4519848
0
LINE
8
0
10
56.5598019
20
-68.4519848
11
51.7587086
21
-86.3699089
0
LINE
8
0
10
56.6762705
20
-68.0173182
11
74.5941946
21
-72.8184115
0
LINE
8
0
10
74.5941946
20
-72.8184115
11
79.3952879
21
-54.9004874
0
LINE
8
0
10
79.3952879
20
-54.9004874
11
61.4773638
21
-50.0993941
0
LINE
8
0
10
61.4773638
20
-50.0993941
11
56.6762705
21
-68.0173182
0
LINE
8
0
10
62.7414269
20
-118.7922086
11
80.659351
21
-123.5933019
0
LINE
8
0
10
80.659351
20
-123.5933019
11
85.4604443
21
-105.6753778
0
LINE
8
0
10
85.4604443
20
-105.6753778
11
67.5425202
21
-100.8742845
0
LINE
8
0
10
67.5425202
20
-100.8742845
11
62.7414269
21
-118.7922086
0
LINE
8
0
10
67.6589888
20
-100.4396179
11
85.5769129
21
-105.2407112
0
LINE
8
0
10
85.5769129
20
-105.2407112
11
90.3780062
21
-87.3227871
0
LINE
8
0
10
90.3780062
20
-87.3227871
11
72.4600821
21
-82.5216938
0
LINE
8
0
10
72.4600821
20
-82.5216938
11
67.6589888
21
-100.4396179
0
LINE
8
0
10
72.5765507
20
-82.0870272
11
90.4944748
21
-86.8881205
0
LINE
8
0
10
90.4944748
20
-86.8881205
11
95.2955681
21
-68.9701964
0
LINE
8
0
10
95.2955681
20
-68.9701964
11
77.377644
21
-64.1691031
0
LINE
8
0
10
77.377644
20
-64.1691031
11
72.5765507
21
-82.0870272
0
LINE
8
0
10
77.4941126
20
-63.7344365
11
95.4120367
21
-68.5355298
0
LINE
8
0
10
95.4120367
20
-68.5355298
11
100.21313
21
-50.6176057
0
LINE
8
0
10
100.21313
20
-50.6176057
11
82.2952059
21
-45.8165124
0
LINE
8
0
10
82.2952059
20
-45.8165124
11
77.4941126
21
-63.7344365
0
LINE
8
0
10
83.559269
20
-114.509327
11
101.4771931
21
-119.3104203
0
LINE
8
0
10
101.4771931
20
-119.3104203
11
106.2782864
21
-101.3924962
0
LINE
8
0
10
106.2782864
20
-101.3924962
11
88.3603623
21
-96.5914029
0
LINE
8
0
10
88.3603623
20
-96.5914029
11
83.559269
21
-114.509327
0
LINE
8
0
10
88.4768309
20
-96.1567363
11
106.394755
21
-100.9578296
0
LINE
8
0
10
106.394755
20
-100.9578296
11
111.1958483
21
-83.0399055
0
LINE
8
0
10
111.1958483
20
-83.0399055
11
93.2779242
21
-78.2388122
0
LINE
8
0
10
93.2779242
20
-78.2388122
11
88.4768309
21
-96.1567363
0
LINE
8
0
10
93.3943928
20
-77.8041456
11
111.3123169
21
-82.6052389
0
LINE
8
0
10
111.3123169
20
-82.6052389
11
116.1134102
21
-64.6873148
0
LINE
8
0
10
116.1134102
20
-64.6873148
11
98.1954861
21
-59.8862215
0
LINE
8
0
10
98.1954861
20
-59.8862215
11
93.3943928
21
-77.8041456
0
LINE
8
0
10
98.3119547
20
-59.4515549
11
116.2298788
21
-64.2526482
0
LINE
8
0
10
116.2298788
20
-64.2526482
11
121.0309721
21
-46.3347241
0
LINE
8
0
10
121.0309721
20
-46.3347241
11
103.113048
21
-41.5336308
0
LINE
8
0
10
103.113048
20
-41.5336308
11
98.3119547
21
-59.4515549
0
LINE
8
0
10
99.4466083
20
-128.6273323
11
117.3645324
21
-133.4284256
0
LINE
8
0
10
117.3645324
20
-133.4284256
11
122.1656257
21
-115.5105015
0
LINE
8
0
10
122.1656257
20
-115.5105015
11
104.2477016
21
-110.7094082
0
LINE
8
0
10
104.2477016
20
-110.7094082
11
99.4466083
21
-128.6273323
0
LINE
8
0
10
104.3641702
20
-110.2747416
11
122.2820943
21
-115.0758349
0
LINE
8
0
10
122.2820943
20
-115.0758349
11
127.0831876
21
-97.1579108
0
LINE
8
0
10
127.0831876
20
-97.1579108
11
109.1652635
21
-92.3568175
0
LINE
8
0
10
109.1652635
20
-92.3568175
11
104.3641702
21
-110.2747416
0
LINE
8
0
10
109.2817321
20
-91.9221509
11
127.1996562
21
-96.7232442
0
LINE
8
0
10
127.1996562
20
-96.7232442
11
132.0007495
21
-78.8053201
0
LINE
8
0
10
132.0007495
20
-78.8053201
11
114.0828254
21
-74.0042268
0
LINE
8
0
10
114.0828254
20
-74.0042268
11
109.2817321
21
-91.9221509
0
LINE
8
0
10
114.199294
20
-73.5695602
11
132.1172181
21
-78.3706535
0
LINE
8
0
10
132.1172181
20
-78.3706535
11
136.9183114
21
-60.4527294
0
LINE
8
0
10
136.9183114
20
-60.4527294
11
119.0003873
21
-55.6516361
0
LINE
8
0
10
119.0003873
20
-55.6516361
11
114.199294
21
-73.5695602
0
LINE
8
0
10
115.3339476
20
-142.7453377
11
133.2518717
21
-147.546431
0
LINE
8
0
10
133.2518717
20
-147.546431
11
138.052965
21
-129.6285069
0
LINE
8
0
10
138.052965
20
-129.6285069
11
120.1350409
21
-124.8274136
0
LINE
8
0
10
120.1350409
20
-124.8274136
11
115.3339476
21
-142.7453377
0
LINE
8
0
10
120.2515095
20
-124.392747
11
138.1694336
21
-129.1938403
0
LINE
8
0
10
138.1694336
20
-129.1938403
11
142.9705269
21
-111.2759162
0
LINE
8
0
10
142.9705269
20
-111.2759162
11
125.0526028
21
-106.4748229
0
LINE
8
0
10
125.0526028
20
-106.4748229
11
120.2515095
21
-124.392747
0
LINE
8
0
10
125.1690714
20
-106.0401563
11
143.0869955
21
-110.8412496
0
LINE
8
0
10
143.0869955
20
-110.8412496
11
147.8880888
21
-92.9233255
0
LINE
8
0
10
147.8880888
20
-92.9233255
11
129.9701647
21
-88.1222322
0
LINE
8
0
10
129.9701647
20
-88.1222322
11
125.1690714
21
-106.0401563
0
LINE
8
0
10
130.0866333
20
-87.6875656
11
148.0045574
21
-92.4886589
0
LINE
8
0
10
148.0045574
20
-92.4886589
11
152.8056507
21
-74.5707348
0
LINE
8
0
10
152.8056507
20
-74.5707348
11
134.8877266
21
-69.7696415
0
LINE
8
0
10
134.8877266
20
-69.7696415
11
130.0866333
21
-87.6875656
0
LINE
8
0
10
136.1388488
20
-138.5107523
11
154.0567729
21
-143.3118456
0
LINE
8
0
10
154.0567729
20
-143.3118456
11
158.8578662
21
-125.3939215
0
LINE
8
0
10
158.8578662
20
-125.3939215
11
140.9399421
21
-120.5928282
0
LINE
8
0
10
140.9399421
20
-120.5928282
11
136.1388488
21
-138.5107523
0
LINE
8
0
10
141.0564107
20
-120.1581616
11
158.9743348
21
-124.9592549
0
LINE
8
0
10
158.9743348
20
-124.9592549
11
163.7754281
21
-107.0413308
0
LINE
8
0
10
163.7754281
20
-107.0413308
11
145.857504
21
-102.2402375
0
LINE
8
0
10
145.857504
20
-102.2402375
11
141.0564107
21
-120.1581616
0
LINE
8
0
10
145.9739726
20
-101.8055709
11
163.8918967
21
-106.6066642
0
LINE
8
0
10
163.8918967
20
-106.6066642
11
168.69299
21
-88.6887401
0
LINE
8
0
10
168.69299
20
-88.6887401
11
150.7750659
21
-83.8876468
0
LINE
8
0
10
150.7750659
20
-83.8876468
11
145.9739726
21
-101.8055709
0
LINE
8
0
10
143.3812942
20
-170.2414318
11
152.6562942
21
-186.306203
0
LINE
8
0
10
152.6562942
20
-186.306203
11
168.7210654
21
-177.031203
0
LINE
8
0
10
168.7210654
20
-177.031203
11
159.4460654
21
-160.9664318
0
LINE
8
0
10
159.4460654
20
-160.9664318
11
143.3812942
21
-170.2414318
0
LINE
8
0
10
159.8357769
20
-160.7414318
11
169.1107769
21
-176.806203
0
LINE
8
0
10
169.1107769
20
-176.806203
11
185.1755481
21
-167.531203
0
LINE
8
0
10
185.1755481
20
-167.531203
11
175.9005481
21
-151.4664318
0
LINE
8
0
10
175.9005481
20
-151.4664318
11
159.8357769
21
-160.7414318
0
LINE
8
0
10
152.8812942
20
-186.6959145
11
162.1562942
21
-202.7606857
0
LINE
8
0
10
162.1562942
20
-202.7606857
11
178.2210654
21
-193.4856857
0
LINE
8
0
10
178.2210654
20
-193.4856857
11
168.9460654
21
-177.4209145
0
LINE
8
0
10
168.9460654
20
-177.4209145
11
152.8812942
21
-186.6959145
0
LINE
8
0
10
169.3357769
20
-177.1959145
11
178.6107769
21
-193.2606857
0
LINE
8
0
10
178.6107769
20
-193.2606857
11
194.6755481
21
-183.9856857
0
LINE
8
0
10
194.6755481
20
-183.9856857
11
185.4005481
21
-167.9209145
0
LINE
8
0
10
185.4005481
20
-167.9209145
11
169.3357769
21
-177.1959145
0
LINE
8
0
10
358.1700963
20
-113.8064745
11
376.0880204
21
-109.0053812
0
LINE
8
0
10
376.0880204
20
-109.0053812
11
371.2869271
21
-91.0874571
0
LINE
8
0
10
371.2869271
20
-91.0874571
11
353.369003
21
-95.8885504
0
LINE
8
0
10
353.369003
20
-95.8885504
11
358.1700963
21
-113.8064745
0
LINE
8
0
10
353.2525344
20
-95.4538838
11
371.1704585
21
-90.6527905
0
LINE
8
0
10
371.1704585
20
-90.6527905
11
366.3693652
21
-72.7348664
0
LINE
8
0
10
366.3693652
20
-72.7348664
11
348.4514411
21
-77.5359597
0
LINE
8
0
10
348.4514411
20
-77.5359597
11
353.2525344
21
-95.4538838
0
LINE
8
0
10
348.3349725
20
-77.1012931
11
366.2528966
21
-72.3001998
0
LINE
8
0
10
366.2528966
20
-72.3001998
11
361.4518033
21
-54.3822757
0
LINE
8
0
10
361.4518033
20
-54.3822757
11
343.5338792
21
-59.183369
0
LINE
8
0
10
343.5338792
20
-59.183369
11
348.3349725
21
-77.1012931
0
LINE
8
0
10
342.2698161
20
-127.8761836
11
360.1877402
21
-123.0750903
0
LINE
8
0
10
360.1877402
20
-123.0750903
11
355.3866469
21
-105.1571662
0
LINE
8
0
10
355.3866469
20
-105.1571662
11
337.4687228
21
-109.9582595
0
LINE
8
0
10
337.4687228
20
-109.9582595
11
342.2698161
21
-127.8761836
0
LINE
8
0
10
337.3522542
20
-109.5235929
11
355.2701783
21
-104.7224996
0
LINE
8
0
10
355.2701783
20
-104.7224996
11
350.469085
21
-86.8045755
0
LINE
8
0
10
350.469085
20
-86.8045755
11
332.5511609
21
-91.6056688
0
LINE
8
0
10
332.5511609
20
-91.6056688
11
337.3522542
21
-109.5235929
0
LINE
8
0
10
332.4346923
20
-91.1710022
11
350.3526164
21
-86.3699089
0
LINE
8
0
10
350.3526164
20
-86.3699089
11
345.5515231
21
-68.4519848
0
LINE
8
0
10
345.5515231
20
-68.4519848
11
327.633599
21
-73.2530781
0
LINE
8
0
10
327.633599
20
-73.2530781
11
332.4346923
21
-91.1710022
0
LINE
8
0
10
327.5171304
20
-72.8184115
11
345.4350545
21
-68.0173182
0
LINE
8
0
10
345.4350545
20
-68.0173182
11
340.6339612
21
-50.0993941
0
LINE
8
0
10
340.6339612
20
-50.0993941
11
322.7160371
21
-54.9004874
0
LINE
8
0
10
322.7160371
20
-54.9004874
11
327.5171304
21
-72.8184115
0
LINE
8
0
10
321.451974
20
-123.5933019
11
339.3698981
21
-118.7922086
0
LINE
8
0
10
339.3698981
20
-118.7922086
11
334.5688048
21
-100.8742845
0
LINE
8
0
10
334.5688048
20
-100.8742845
11
316.6508807
21
-105.6753778
0
LINE
8
0
10
316.6508807
20
-105.6753778
11
321.451974
21
-123.5933019
0
LINE
8
0
10
316.5344121
20
-105.2407112
11
334.4523362
21
-100.4396179
0
LINE
8
0
10
334.4523362
20
-100.4396179
11
329.6512429
21
-82.5216938
0
LINE
8
0
10
329.6512429
20
-82.5216938
11
311.7333188
21
-87.3227871
0
LINE
8
0
10
311.7333188
20
-87.3227871
11
316.5344121
21
-105.2407112
0
LINE
8
0
10
311.6168502
20
-86.8881205
11
329.5347743
21
-82.0870272
0
LINE
8
0
10
329.5347743
20
-82.0870272
11
324.733681
21
-64.1691031
0
LINE
8
0
10
324.733681
20
-64.1691031
11
306.8157569
21
-68.9701964
0
LINE
8
0
10
306.8157569
20
-68.9701964
11
311.6168502
21
-86.8881205
0
LINE
8
0
10
306.6992883
20
-68.5355298
11
324.6172124
21
-63.7344365
0
LINE
8
0
10
324.6172124
20
-63.7344365
11
319.8161191
21
-45.8165124
0
LINE
8
0
10
319.8161191
20
-45.8165124
11
301.898195
21
-50.6176057
0
LINE
8
0
10
301.898195
20
-50.6176057
11
306.6992883
21
-68.5355298
0
LINE
8
0
10
300.6341319
20
-119.3104203
11
318.552056
21
-114.509327
0
LINE
8
0
10
318.552056
20
-114.509327
11
313.7509627
21
-96.5914029
0
LINE
8
0
10
313.7509627
20
-96.5914029
11
295.8330386
21
-101.3924962
0
LINE
8
0
10
295.8330386
20
-101.3924962
11
300.6341319
21
-119.3104203
0
LINE
8
0
10
295.71657
20
-100.9578296
11
313.6344941
21
-96.1567363
0
LINE
8
0
10
313.6344941
20
-96.1567363
11
308.8334008
21
-78.2388122
0
LINE
8
0
10
308.8334008
20
-78.2388122
11
290.9154767
21
-83.0399055
0
LINE
8
0
10
290.9154767
20
-83.0399055
11
295.71657
21
-100.9578296
0
LINE
8
0
10
290.7990081
20
-82.6052389
11
308.7169322
21
-77.8041456
0
LINE
8
0
10
308.7169322
20
-77.8041456
11
303.9158389
21
-59.8862215
0
LINE
8
0
10
303.9158389
20
-59.8862215
11
285.9979148
21
-64.6873148
0
LINE
8
0
10
285.9979148
20
-64.6873148
11
290.7990081
21
-82.6052389
0
LINE
8
0
10
285.8814462
20
-64.2526482
11
303.7993703
21
-59.4515549
0
LINE
8
0
10
303.7993703
20
-59.4515549
11
298.998277
21
-41.5336308
0
LINE
8
0
10
298.998277
20
-41.5336308
11
281.0803529
21
-46.3347241
0
LINE
8
0
10
281.0803529
20
-46.3347241
11
285.8814462
21
-64.2526482
0
LINE
8
0
10
284.7467926
20
-133.4284256
11
302.6647167
21
-128.6273323
0
LINE
8
0
10
302.6647167
20
-128.6273323
11
297.8636234
21
-110.7094082
0
LINE
8
0
10
297.8636234
20
-110.7094082
11
279.9456993
21
-115.5105015
0
LINE
8
0
10
279.9456993
20
-115.5105015
11
284.7467926
21
-133.4284256
0
LINE
8
0
10
279.8292307
20
-115.0758349
11
297.7471548
21
-110.2747416
0
LINE
8
0
10
297.7471548
20
-110.2747416
11
292.9460615
21
-92.3568175
0
LINE
8
0
10
292.9460615
20
-92.3568175
11
275.0281374
21
-97.1579108
0
LINE
8
0
10
275.0281374
20
-97.1579108
11
279.8292307
21
-115.0758349
0
LINE
8
0
10
274.9116688
20
-96.7232442
11
292.8295929
21
-91.9221509
0
LINE
8
0
10
292.8295929
20
-91.9221509
11
288.0284996
21
-74.0042268
0
LINE
8
0
10
288.0284996
20
-74.0042268
11
270.1105755
21
-78.8053201
0
LINE
8
0
10
270.1105755
20
-78.8053201
11
274.9116688
21
-96.7232442
0
LINE
8
0
10
269.9941069
20
-78.3706535
11
287.912031
21
-73.5695602
0
LINE
8
0
10
287.912031
20
-73.5695602
11
283.1109377
21
-55.6516361
0
LINE
8
0
10
283.1109377
20
-55.6516361
11
265.1930136
21
-60.4527294
0
LINE
8
0
10
265.1930136
20
-60.4527294
11
269.9941069
21
-78.3706535
0
LINE
8
0
10
268.8594533
20
-147.546431
11
286.7773774
21
-142.7453377
0
LINE
8
0
10
286.7773774
20
-142.7453377
11
281.9762841
21
-124.8274136
0
LINE
8
0
10
281.9762841
20
-124.8274136
11
264.05836
21
-129.6285069
0
LINE
8
0
10
264.05836
20
-129.6285069
11
268.8594533
21
-147.546431
0
LINE
8
0
10
263.9418914
20
-129.1938403
11
281.8598155
21
-124.392747
0
LINE
8
0
10
281.8598155
20
-124.392747
11
277.0587222
21
-106.4748229
0
LINE
8
0
10
277.0587222
20
-106.4748229
11
259.1407981
21
-111.2759162
0
LINE
8
0
10
259.1407981
20
-111.2759162
11
263.9418914
21
-129.1938403
0
LINE
8
0
10
259.0243295
20
-110.8412496
11
276.9422536
21
-106.0401563
0
LINE
8
0
10
276.9422536
20
-106.0401563
11
272.1411603
21
-88.1222322
0
LINE
8
0
10
272.1411603
20
-88.1222322
11
254.2232362
21
-92.9233255
0
LINE
8
0
10
254.2232362
20
-92.9233255
11
259.0243295
21
-110.8412496
0
LINE
8
0
10
254.1067676
20
-92.4886589
11
272.0246917
21
-87.6875656
0
LINE
8
0
10
272.0246917
20
-87.6875656
11
267.2235984
21
-69.7696415
0
LINE
8
0
10
267.2235984
20
-69.7696415
11
249.3056743
21
-74.5707348
0
LINE
8
0
10
249.3056743
20
-74.5707348
11
254.1067676
21
-92.4886589
0
LINE
8
0
10
248.0545521
20
-143.3118456
11
265.9724762
21
-138.5107523
0
LINE
8
0
10
265.9724762
20
-138.5107523
11
261.1713829
21
-120.5928282
0
LINE
8
0
10
261.1713829
20
-120.5928282
11
243.2534588
21
-125.3939215
0
LINE
8
0
10
243.2534588
20
-125.3939215
11
248.0545521
21
-143.3118456
0
LINE
8
0
10
243.1369902
20
-124.9592549
11
261.0549143
21
-120.1581616
0
LINE
8
0
10
261.0549143
20
-120.1581616
11
256.253821
21
-102.2402375
0
LINE
8
0
10
256.253821
20
-102.2402375
11
238.3358969
21
-107.0413308
0
LINE
8
0
10
238.3358969
20
-107.0413308
11
243.1369902
21
-124.9592549
0
LINE
8
0
10
238.2194283
20
-106.6066642
11
256.1373524
21
-101.8055709
0
LINE
8
0
10
256.1373524
20
-101.8055709
11
251.3362591
21
-83.8876468
0
LINE
8
0
10
251.3362591
20
-83.8876468
11
233.418335
21
-88.6887401
0
LINE
8
0
10
233.418335
20
-88.6887401
11
238.2194283
21
-106.6066642
0
LINE
8
0
10
249.4550308
20
-186.306203
11
258.7300308
21
-170.2414318
0
LINE
8
0
10
258.7300308
20
-170.2414318
11
242.6652596
21
-160.9664318
0
LINE
8
0
10
242.6652596
20
-160.9664318
11
233.3902596
21
-177.031203
0
LINE
8
0
10
233.3902596
20
-177.031203
11
249.4550308
21
-186.306203
0
LINE
8
0
10
233.0005481
20
-176.806203
11
242.2755481
21
-160.7414318
0
LINE
8
0
10
242.2755481
20
-160.7414318
11
226.2107769
21
-151.4664318
0
LINE
8
0
10
226.2107769
20
-151.4664318
11
216.9357769
21
-167.531203
0
LINE
8
0
10
216.9357769
20
-167.531203
11
233.0005481
21
-176.806203
0
LINE
8
0
10
239.9550308
20
-202.7606857
11
249.2300308
21
-186.6959145
0
LINE
8
0
10
249.2300308
20
-186.6959145
11
233.1652596
21
-177.4209145
0
LINE
8
0
10
233.1652596
20
-177.4209145
11
223.8902596
21
-193.4856857
0
LINE
8
0
10
223.8902596
20
-193.4856857
11
239.9550308
21
-202.7606857
0
LINE
8
0
10
223.5005481
20
-193.2606857
11
232.7755481
21
-177.1959145
0
LINE
8
0
10
232.7755481
20
-177.1959145
11
216.7107769
21
-167.9209145
0
LINE
8
0
10
216.7107769
20
-167.9209145
11
207.4357769
21
-183.9856857
0
LINE
8
0
10
207.4357769
20
-183.9856857
11
223.5005481
21
-193.2606857
0
ENDSEC
0
EOF